<?xml version="1.0" standalone="no"?>
<!DOCTYPE svg PUBLIC "-//W3C//DTD SVG 20010904//EN"
 "http://www.w3.org/TR/2001/REC-SVG-20010904/DTD/svg10.dtd">
<svg version="1.0" xmlns="http://www.w3.org/2000/svg"
 width="808.000000pt" height="808.000000pt" viewBox="0 0 808.000000 808.000000"
 preserveAspectRatio="xMidYMid meet">
<metadata>
Created by potrace 1.14, written by Peter Selinger 2001-2017
</metadata>
<g transform="translate(0.000000,808.000000) scale(0.100000,-0.100000)"
fill="#000000" stroke="none">
<path d="M2588 7474 c-3 -2 -36 -7 -72 -9 -37 -2 -79 -6 -94 -9 -24 -5 -62
-11 -127 -21 -118 -19 -332 -80 -485 -140 -103 -41 -334 -153 -338 -166 -2 -5
-9 -9 -16 -9 -20 0 -259 -162 -361 -244 -172 -139 -208 -174 -384 -371 -9 -11
-46 -58 -82 -105 -35 -47 -67 -86 -71 -88 -5 -2 -8 -10 -8 -18 0 -8 -4 -14
-10 -14 -5 0 -10 -4 -10 -9 0 -5 -18 -36 -40 -69 -63 -94 -141 -237 -190 -347
-24 -55 -47 -104 -50 -110 -4 -5 -13 -31 -21 -57 -7 -27 -17 -48 -21 -48 -4 0
-7 -3 -6 -7 3 -12 -13 -75 -23 -93 -8 -13 -44 -150 -55 -205 -2 -11 -7 -33
-11 -50 -4 -16 -7 -34 -8 -40 -1 -18 -17 -119 -21 -140 -16 -75 -19 -261 -19
-1055 0 -770 4 -984 20 -1069 1 -9 6 -36 9 -61 16 -105 81 -374 104 -425 5
-11 15 -38 22 -60 7 -22 24 -65 37 -95 54 -121 98 -215 103 -220 3 -3 20 -34
39 -70 29 -56 172 -278 201 -313 6 -7 43 -52 82 -102 87 -108 143 -170 222
-244 33 -31 67 -63 75 -71 32 -30 224 -181 252 -197 16 -10 29 -21 29 -25 0
-4 6 -8 14 -8 8 0 16 -4 18 -8 2 -4 25 -21 52 -37 28 -17 70 -42 95 -58 90
-54 236 -125 386 -188 130 -54 410 -128 545 -145 19 -2 44 -6 55 -9 74 -16
360 -20 1635 -20 1280 0 1543 3 1615 18 11 3 47 8 80 12 32 3 62 8 66 11 4 2
24 6 45 10 22 3 55 9 74 14 120 29 158 40 185 50 17 7 41 14 54 16 13 3 36 11
52 19 15 8 33 15 39 15 31 0 286 125 459 225 27 16 125 79 136 88 6 4 35 26
65 48 183 133 371 307 475 438 22 28 43 51 47 51 5 0 8 5 8 11 0 6 14 28 30
48 39 46 39 46 80 106 19 28 37 51 42 53 4 2 8 7 8 12 0 5 22 44 48 87 54 86
56 91 124 226 26 51 50 106 53 120 4 15 11 27 16 27 5 0 9 7 9 15 0 8 12 44
26 79 14 36 27 71 28 78 2 7 6 20 9 28 23 58 85 327 101 440 18 127 21 275 21
1090 0 794 -3 954 -19 1040 -3 14 -7 43 -10 65 -29 233 -137 571 -254 795 -69
130 -123 224 -134 228 -4 2 -8 8 -8 14 0 8 -34 60 -73 113 -53 72 -113 151
-117 155 -3 3 -29 34 -59 70 -82 98 -282 290 -302 290 -5 0 -9 4 -9 8 0 5 -18
21 -41 38 -22 16 -46 34 -52 39 -85 71 -293 202 -442 278 -95 48 -178 87 -195
91 -3 1 -32 12 -65 25 -61 23 -231 77 -269 86 -12 2 -48 11 -81 19 -33 8 -76
17 -95 20 -19 3 -46 8 -60 11 -14 3 -47 8 -75 11 -27 3 -68 9 -90 12 -51 7
-3010 13 -3017 6z m2947 -1377 c22 -4 53 -12 69 -17 16 -6 31 -8 34 -5 3 2 12
0 22 -5 9 -5 31 -12 47 -14 75 -14 333 -137 376 -180 7 -7 17 -15 24 -17 48
-18 286 -255 330 -330 10 -16 21 -29 25 -29 4 0 8 -4 8 -10 0 -5 15 -33 34
-62 57 -90 134 -281 150 -373 3 -16 7 -42 10 -56 3 -15 10 -55 15 -90 11 -74
9 -1711 -2 -1749 -4 -14 -9 -38 -12 -55 -21 -123 -46 -202 -111 -340 -71 -153
-250 -371 -394 -483 -30 -23 -59 -45 -65 -50 -5 -4 -45 -29 -87 -55 -148 -90
-321 -149 -508 -174 -73 -10 -2832 -9 -2890 1 -25 4 -52 8 -60 10 -209 34
-454 149 -615 288 -207 180 -335 357 -420 583 -15 39 -28 77 -30 85 -2 8 -8
35 -15 60 -13 50 -16 63 -27 135 -10 67 -10 1694 0 1766 8 55 12 78 22 119 3
11 7 30 10 42 25 114 147 376 195 418 3 3 14 18 24 34 10 16 30 42 45 59 43
50 189 197 196 197 3 0 16 9 28 21 103 97 398 238 532 255 11 1 20 3 20 4 0 3
38 9 90 15 27 3 51 8 54 10 7 8 2833 -1 2876 -8z"/>
<path d="M2249 5121 c-12 -5 13 -49 123 -216 76 -115 143 -217 148 -225 6 -8
44 -67 86 -130 41 -63 80 -122 87 -131 18 -23 36 -52 44 -69 4 -8 9 -17 12
-20 9 -8 71 -100 71 -106 0 -3 5 -10 11 -17 10 -12 241 -360 438 -662 58 -88
108 -162 111 -165 4 -3 9 -12 13 -20 7 -18 232 -357 252 -383 8 -9 15 -19 15
-22 0 -3 16 -27 35 -54 19 -26 35 -53 35 -58 0 -6 9 -18 20 -28 11 -10 20 -24
20 -32 0 -7 4 -13 8 -13 5 0 14 -10 21 -22 25 -47 89 -146 108 -166 6 -6 15
-21 18 -32 3 -11 11 -20 16 -20 5 0 9 -5 9 -11 0 -6 16 -33 35 -59 19 -26 35
-52 35 -58 0 -6 4 -12 8 -14 5 -1 27 -32 49 -67 l41 -64 53 79 c30 44 56 84
59 89 14 28 105 160 112 163 4 2 8 7 8 12 0 8 138 221 158 246 5 5 15 21 22
35 7 13 16 26 19 29 3 3 35 50 71 105 36 55 68 102 73 103 4 2 7 7 7 12 0 12
81 134 92 138 4 2 8 8 8 13 0 5 49 83 110 174 61 92 110 168 110 171 0 3 6 12
13 19 28 32 37 45 37 53 0 4 7 17 16 27 8 11 102 153 209 315 107 162 198 300
202 305 5 6 24 35 43 65 19 30 38 60 43 65 4 6 90 136 192 290 101 154 187
285 192 291 18 23 34 56 30 61 -3 2 -54 4 -114 4 -59 -1 -117 -1 -128 -1 -160
0 -195 0 -202 -1 -4 -1 -12 0 -18 1 -11 2 -128 1 -142 -1 -4 -1 -12 0 -18 1
-5 1 -44 1 -85 0 -41 -1 -84 -1 -95 -1 -150 2 -288 0 -296 -4 -5 -4 -9 -3 -9
2 0 4 -19 7 -42 5 -24 -1 -50 -3 -58 -2 -65 1 -190 0 -197 -1 -4 -1 -12 -1
-18 1 -8 1 -76 1 -175 -1 -8 0 -49 0 -90 1 -41 1 -79 1 -85 0 -5 -1 -14 -1
-20 0 -5 1 -30 1 -55 1 -25 -1 -56 -2 -70 -2 -36 0 -232 0 -250 0 -62 2 -190
1 -197 0 -4 -1 -12 0 -18 1 -11 2 -128 1 -142 -1 -4 -1 -12 0 -18 1 -5 1 -44
1 -85 0 -41 -1 -84 -1 -95 -1 -150 2 -288 0 -296 -4 -5 -4 -9 -3 -9 2 0 4 -19
7 -42 5 -24 -1 -50 -3 -58 -2 -65 1 -190 0 -197 -1 -4 -1 -12 0 -18 1 -21 4
-147 0 -156 -6 -5 -3 -9 -2 -9 3 0 8 -123 7 -165 -1 -11 -2 -29 0 -40 4 -11 4
-27 5 -36 1z"/>
</g>
</svg>
